# xmcd CD database file
#
# Track frame offsets:
#	150
#	43836
#	56997
#	130781
#	160126
#
# Disc length: 3651 seconds
#
# Revision: 0
# Processed by: cddbd v1.5.2PL0 Copyright (c) Steve Scherf et al.
# Submitted via: CDex 1.70beta2
#
DISCID=420e4105
DTITLE=Don Cherry - Kopenhagen 63 and Hilversum 66
DYEAR=2010
DGENRE=Jazz
TTITLE0=Emotions
TTITLE1=Monk's Mood
TTITLE2=Consequences
TTITLE3=Exodus
TTITLE4=Suite  For the Children, Afro Blue, Remember Clifford
EXTD=YEAR: 2010
EXTT0=
EXTT1=
EXTT2=
EXTT3=
EXTT4=
PLAYORDER=
